<mxfile host="app.diagrams.net" modified="2024-07-08T20:14:21.463Z" agent="Mozilla/5.0 (Windows NT 10.0; Win64; x64) AppleWebKit/537.36 (KHTML, like Gecko) Chrome/126.0.0.0 Safari/537.36" etag="lAANPAGxbPeYG0LSKw2U" version="24.6.4" type="device">
  <diagram id="prtHgNgQTEPvFCAcTncT" name="Page-1">
    <mxGraphModel dx="1709" dy="893" grid="1" gridSize="10" guides="1" tooltips="1" connect="1" arrows="1" fold="1" page="1" pageScale="1" pageWidth="827" pageHeight="1169" math="0" shadow="0">
      <root>
        <mxCell id="0" />
        <mxCell id="1" parent="0" />
        <mxCell id="dNxyNK7c78bLwvsdeMH5-19" value="2FA" style="swimlane;html=1;childLayout=stackLayout;resizeParent=1;resizeParentMax=0;horizontal=0;startSize=20;horizontalStack=0;fillColor=#000000;fontColor=#FFFFFF;" parent="1" vertex="1">
          <mxGeometry x="40" y="40" width="680" height="360" as="geometry" />
        </mxCell>
        <mxCell id="dNxyNK7c78bLwvsdeMH5-31" style="edgeStyle=orthogonalEdgeStyle;rounded=0;orthogonalLoop=1;jettySize=auto;html=1;endArrow=classic;endFill=1;" parent="dNxyNK7c78bLwvsdeMH5-19" source="dNxyNK7c78bLwvsdeMH5-28" edge="1">
          <mxGeometry relative="1" as="geometry">
            <mxPoint x="300" y="90" as="targetPoint" />
          </mxGeometry>
        </mxCell>
        <mxCell id="dNxyNK7c78bLwvsdeMH5-20" value="WebApp" style="swimlane;html=1;startSize=20;horizontal=0;swimlaneFillColor=#D5E8D4;fillColor=#f5f5f5;fontColor=#333333;strokeColor=#666666;" parent="dNxyNK7c78bLwvsdeMH5-19" vertex="1">
          <mxGeometry x="20" width="660" height="120" as="geometry">
            <mxRectangle x="20" width="430" height="30" as="alternateBounds" />
          </mxGeometry>
        </mxCell>
        <mxCell id="ay3iQQu9b-1fAjh1klHw-8" style="edgeStyle=orthogonalEdgeStyle;rounded=0;orthogonalLoop=1;jettySize=auto;html=1;entryX=1;entryY=0.5;entryDx=0;entryDy=0;" parent="dNxyNK7c78bLwvsdeMH5-20" source="ay3iQQu9b-1fAjh1klHw-7" edge="1">
          <mxGeometry relative="1" as="geometry">
            <mxPoint x="30" y="60" as="targetPoint" />
          </mxGeometry>
        </mxCell>
        <mxCell id="ay3iQQu9b-1fAjh1klHw-7" value="Authentication failed" style="strokeWidth=2;html=1;shape=mxgraph.flowchart.display;whiteSpace=wrap;" parent="dNxyNK7c78bLwvsdeMH5-20" vertex="1">
          <mxGeometry x="80" y="30" width="100" height="60" as="geometry" />
        </mxCell>
        <mxCell id="GTMSU1-Rp_WPfG6CnGGz-1" style="edgeStyle=orthogonalEdgeStyle;rounded=0;orthogonalLoop=1;jettySize=auto;html=1;" edge="1" parent="dNxyNK7c78bLwvsdeMH5-20" source="oE46_3HJ3IWfwsqIMQE9-19">
          <mxGeometry relative="1" as="geometry">
            <mxPoint x="30" y="60" as="targetPoint" />
            <Array as="points">
              <mxPoint x="490" y="20" />
              <mxPoint x="60" y="20" />
              <mxPoint x="60" y="61" />
            </Array>
          </mxGeometry>
        </mxCell>
        <mxCell id="oE46_3HJ3IWfwsqIMQE9-19" value="Authentication failed" style="strokeWidth=2;html=1;shape=mxgraph.flowchart.display;whiteSpace=wrap;" parent="dNxyNK7c78bLwvsdeMH5-20" vertex="1">
          <mxGeometry x="440" y="30" width="100" height="60" as="geometry" />
        </mxCell>
        <mxCell id="oE46_3HJ3IWfwsqIMQE9-22" value="Authentication&lt;br&gt;ok" style="strokeWidth=2;html=1;shape=mxgraph.flowchart.display;whiteSpace=wrap;" parent="dNxyNK7c78bLwvsdeMH5-20" vertex="1">
          <mxGeometry x="550" y="30" width="100" height="60" as="geometry" />
        </mxCell>
        <mxCell id="dNxyNK7c78bLwvsdeMH5-21" value="Authority" style="swimlane;html=1;startSize=20;horizontal=0;swimlaneFillColor=#E1D5E7;" parent="dNxyNK7c78bLwvsdeMH5-19" vertex="1">
          <mxGeometry x="20" y="120" width="660" height="120" as="geometry" />
        </mxCell>
        <mxCell id="dNxyNK7c78bLwvsdeMH5-29" value="" style="edgeStyle=orthogonalEdgeStyle;rounded=0;orthogonalLoop=1;jettySize=auto;html=1;endArrow=classic;endFill=1;exitX=1;exitY=0.5;exitDx=0;exitDy=0;" parent="dNxyNK7c78bLwvsdeMH5-21" target="dNxyNK7c78bLwvsdeMH5-28" edge="1">
          <mxGeometry relative="1" as="geometry">
            <mxPoint x="30" y="60" as="sourcePoint" />
          </mxGeometry>
        </mxCell>
        <mxCell id="oE46_3HJ3IWfwsqIMQE9-4" value="checking hashed&lt;br&gt;credentials" style="edgeLabel;html=1;align=center;verticalAlign=top;resizable=0;points=[];labelPosition=center;verticalLabelPosition=bottom;labelBackgroundColor=default;" parent="dNxyNK7c78bLwvsdeMH5-29" vertex="1" connectable="0">
          <mxGeometry relative="1" as="geometry">
            <mxPoint as="offset" />
          </mxGeometry>
        </mxCell>
        <mxCell id="dNxyNK7c78bLwvsdeMH5-28" value="Matches&lt;br&gt;stored hash?" style="rhombus;html=1;fontFamily=Helvetica;fontSize=12;fontColor=#000000;align=left;labelPosition=right;verticalLabelPosition=middle;verticalAlign=middle;labelBackgroundColor=default;" parent="dNxyNK7c78bLwvsdeMH5-21" vertex="1">
          <mxGeometry x="110" y="40" width="40" height="40" as="geometry" />
        </mxCell>
        <mxCell id="oE46_3HJ3IWfwsqIMQE9-15" value="Approved?" style="rhombus;html=1;fontFamily=Helvetica;fontSize=12;fontColor=#000000;align=right;labelPosition=left;verticalLabelPosition=middle;verticalAlign=middle;labelBackgroundColor=default;" parent="dNxyNK7c78bLwvsdeMH5-21" vertex="1">
          <mxGeometry x="470" y="40" width="40" height="40" as="geometry" />
        </mxCell>
        <mxCell id="oE46_3HJ3IWfwsqIMQE9-20" value="Session" style="strokeWidth=2;html=1;shape=mxgraph.flowchart.document2;whiteSpace=wrap;size=0.25;" parent="dNxyNK7c78bLwvsdeMH5-21" vertex="1">
          <mxGeometry x="550" y="30" width="100" height="60" as="geometry" />
        </mxCell>
        <mxCell id="oE46_3HJ3IWfwsqIMQE9-21" value="Yes" style="edgeStyle=orthogonalEdgeStyle;rounded=0;orthogonalLoop=1;jettySize=auto;html=1;fontColor=#00CC00;labelPosition=center;verticalLabelPosition=top;align=center;verticalAlign=bottom;labelBackgroundColor=default;fontStyle=1;fillColor=#f8cecc;strokeColor=#00FF00;entryX=0;entryY=0.5;entryDx=0;entryDy=0;entryPerimeter=0;exitX=1;exitY=0.5;exitDx=0;exitDy=0;" parent="dNxyNK7c78bLwvsdeMH5-21" source="oE46_3HJ3IWfwsqIMQE9-15" target="oE46_3HJ3IWfwsqIMQE9-20" edge="1">
          <mxGeometry relative="1" as="geometry">
            <mxPoint x="140" y="90" as="sourcePoint" />
            <mxPoint x="140" y="160" as="targetPoint" />
          </mxGeometry>
        </mxCell>
        <mxCell id="dNxyNK7c78bLwvsdeMH5-22" value="Enrolled device" style="swimlane;html=1;startSize=20;horizontal=0;swimlaneFillColor=#D4E1F5;" parent="dNxyNK7c78bLwvsdeMH5-19" vertex="1">
          <mxGeometry x="20" y="240" width="660" height="120" as="geometry" />
        </mxCell>
        <mxCell id="oE46_3HJ3IWfwsqIMQE9-1" value="2FA request" style="strokeWidth=2;html=1;shape=mxgraph.flowchart.document2;whiteSpace=wrap;size=0.25;" parent="dNxyNK7c78bLwvsdeMH5-22" vertex="1">
          <mxGeometry x="80" y="30" width="100" height="60" as="geometry" />
        </mxCell>
        <mxCell id="oE46_3HJ3IWfwsqIMQE9-12" value="2FA response" style="strokeWidth=2;html=1;shape=mxgraph.flowchart.document2;whiteSpace=wrap;size=0.25;" parent="dNxyNK7c78bLwvsdeMH5-22" vertex="1">
          <mxGeometry x="440" y="30" width="100" height="60" as="geometry" />
        </mxCell>
        <mxCell id="ay3iQQu9b-1fAjh1klHw-13" value="Is it you&lt;br&gt;trying to login&lt;br&gt;into App?" style="strokeWidth=2;html=1;shape=mxgraph.flowchart.display;whiteSpace=wrap;" parent="dNxyNK7c78bLwvsdeMH5-22" vertex="1">
          <mxGeometry x="200" y="30" width="100" height="60" as="geometry" />
        </mxCell>
        <mxCell id="oE46_3HJ3IWfwsqIMQE9-3" style="edgeStyle=orthogonalEdgeStyle;rounded=0;orthogonalLoop=1;jettySize=auto;html=1;" parent="dNxyNK7c78bLwvsdeMH5-22" source="oE46_3HJ3IWfwsqIMQE9-1" target="ay3iQQu9b-1fAjh1klHw-13" edge="1">
          <mxGeometry relative="1" as="geometry">
            <mxPoint x="235" y="60" as="targetPoint" />
          </mxGeometry>
        </mxCell>
        <mxCell id="oE46_3HJ3IWfwsqIMQE9-10" value="Approves or&lt;br&gt;rejects request" style="html=1;strokeWidth=2;shape=manualInput;whiteSpace=wrap;rounded=1;size=13;arcSize=11;" parent="dNxyNK7c78bLwvsdeMH5-22" vertex="1">
          <mxGeometry x="320" y="30" width="100" height="60" as="geometry" />
        </mxCell>
        <mxCell id="oE46_3HJ3IWfwsqIMQE9-13" style="edgeStyle=orthogonalEdgeStyle;rounded=0;orthogonalLoop=1;jettySize=auto;html=1;" parent="dNxyNK7c78bLwvsdeMH5-22" source="oE46_3HJ3IWfwsqIMQE9-10" target="oE46_3HJ3IWfwsqIMQE9-12" edge="1">
          <mxGeometry relative="1" as="geometry" />
        </mxCell>
        <mxCell id="oE46_3HJ3IWfwsqIMQE9-11" style="edgeStyle=orthogonalEdgeStyle;rounded=0;orthogonalLoop=1;jettySize=auto;html=1;entryX=0;entryY=0.5;entryDx=0;entryDy=0;" parent="dNxyNK7c78bLwvsdeMH5-22" source="ay3iQQu9b-1fAjh1klHw-13" target="oE46_3HJ3IWfwsqIMQE9-10" edge="1">
          <mxGeometry relative="1" as="geometry" />
        </mxCell>
        <mxCell id="ay3iQQu9b-1fAjh1klHw-2" value="No" style="edgeStyle=orthogonalEdgeStyle;rounded=0;orthogonalLoop=1;jettySize=auto;html=1;entryX=0.5;entryY=1;entryDx=0;entryDy=0;fontColor=#CC0000;labelPosition=right;verticalLabelPosition=middle;align=left;verticalAlign=middle;labelBackgroundColor=default;fontStyle=1;fillColor=#f8cecc;strokeColor=#FF0000;exitX=0.5;exitY=0;exitDx=0;exitDy=0;entryPerimeter=0;" parent="dNxyNK7c78bLwvsdeMH5-19" source="dNxyNK7c78bLwvsdeMH5-28" target="ay3iQQu9b-1fAjh1klHw-7" edge="1">
          <mxGeometry relative="1" as="geometry">
            <mxPoint x="300" y="90" as="targetPoint" />
          </mxGeometry>
        </mxCell>
        <mxCell id="ay3iQQu9b-1fAjh1klHw-9" value="Yes" style="edgeStyle=orthogonalEdgeStyle;rounded=0;orthogonalLoop=1;jettySize=auto;html=1;fontColor=#00CC00;labelPosition=right;verticalLabelPosition=middle;align=left;verticalAlign=middle;labelBackgroundColor=default;fontStyle=1;fillColor=#f8cecc;strokeColor=#00FF00;entryX=0.5;entryY=0;entryDx=0;entryDy=0;entryPerimeter=0;" parent="dNxyNK7c78bLwvsdeMH5-19" source="dNxyNK7c78bLwvsdeMH5-28" target="oE46_3HJ3IWfwsqIMQE9-1" edge="1">
          <mxGeometry relative="1" as="geometry">
            <mxPoint x="320" y="170" as="sourcePoint" />
            <mxPoint x="220" y="290" as="targetPoint" />
          </mxGeometry>
        </mxCell>
        <mxCell id="oE46_3HJ3IWfwsqIMQE9-17" style="edgeStyle=orthogonalEdgeStyle;rounded=0;orthogonalLoop=1;jettySize=auto;html=1;entryX=0.5;entryY=1;entryDx=0;entryDy=0;" parent="dNxyNK7c78bLwvsdeMH5-19" source="oE46_3HJ3IWfwsqIMQE9-12" target="oE46_3HJ3IWfwsqIMQE9-15" edge="1">
          <mxGeometry relative="1" as="geometry" />
        </mxCell>
        <mxCell id="oE46_3HJ3IWfwsqIMQE9-18" value="No" style="edgeStyle=orthogonalEdgeStyle;rounded=0;orthogonalLoop=1;jettySize=auto;html=1;fontColor=#CC0000;labelPosition=right;verticalLabelPosition=middle;align=left;verticalAlign=middle;labelBackgroundColor=default;fontStyle=1;fillColor=#f8cecc;strokeColor=#FF0000;exitX=0.5;exitY=0;exitDx=0;exitDy=0;entryX=0.5;entryY=1;entryDx=0;entryDy=0;entryPerimeter=0;" parent="dNxyNK7c78bLwvsdeMH5-19" source="oE46_3HJ3IWfwsqIMQE9-15" target="oE46_3HJ3IWfwsqIMQE9-19" edge="1">
          <mxGeometry relative="1" as="geometry">
            <mxPoint x="730" y="130" as="targetPoint" />
            <mxPoint x="160" y="170" as="sourcePoint" />
          </mxGeometry>
        </mxCell>
        <mxCell id="oE46_3HJ3IWfwsqIMQE9-23" style="edgeStyle=orthogonalEdgeStyle;rounded=0;orthogonalLoop=1;jettySize=auto;html=1;entryX=0.5;entryY=1;entryDx=0;entryDy=0;entryPerimeter=0;" parent="dNxyNK7c78bLwvsdeMH5-19" source="oE46_3HJ3IWfwsqIMQE9-20" target="oE46_3HJ3IWfwsqIMQE9-22" edge="1">
          <mxGeometry relative="1" as="geometry" />
        </mxCell>
      </root>
    </mxGraphModel>
  </diagram>
</mxfile>
